<?xml version="1.0" encoding="UTF-8" standalone="no"?>
<svg
   xmlns:dc="http://purl.org/dc/elements/1.1/"
   xmlns:cc="http://creativecommons.org/ns#"
   xmlns:rdf="http://www.w3.org/1999/02/22-rdf-syntax-ns#"
   xmlns:svg="http://www.w3.org/2000/svg"
   xmlns="http://www.w3.org/2000/svg"
   height="512pt"
   viewBox="0 0 512 512"
   width="512pt"
   version="1.1"
   id="svg16">
  <metadata
     id="metadata22">
    <rdf:RDF>
      <cc:Work
         rdf:about="">
        <dc:format>image/svg+xml</dc:format>
        <dc:type
           rdf:resource="http://purl.org/dc/dcmitype/StillImage" />
        <dc:title></dc:title>
      </cc:Work>
    </rdf:RDF>
  </metadata>
  <defs
     id="defs20" />
  <path
     d="M 456.11247,1.964065 H 57.853884 c -30.159779,0 -54.6958265,24.536048 -54.6958265,54.695827 V 454.91848 c 0,30.16366 24.5360475,54.6997 54.6958265,54.6997 H 456.11247 c 30.15978,0 54.69583,-24.53604 54.69583,-54.6997 V 56.659892 c 0,-30.159779 -24.53605,-54.695827 -54.69583,-54.695827 z m 0,0"
     fill="#00d8e0"
     id="path2"
     style="fill:#fcf951;fill-opacity:1;stroke:#422057;stroke-width:3.22216;stroke-miterlimit:4;stroke-dasharray:none;stroke-opacity:1" />
  <path
     d="m 334.42429,127.50601 c -34.69069,0 -54.38444,19.15226 -54.38444,59.55969 v 144.50468 c 0,40.39482 19.69375,59.55972 53.86818,59.55972 33.67075,0 54.38443,-19.1523 54.38443,-59.55972 v -30.56056 h -41.95621 c -13.46076,0 -20.7137,-12.94448 -20.7137,-26.41781 0,-12.94446 7.25294,-26.4052 20.7137,-26.4052 h 88.05518 c 13.47333,0 21.24253,10.35051 21.24253,21.7588 v 61.62477 c 0,86.49378 -53.35191,118.61574 -121.72593,118.61574 -68.36146,0 -121.19709,-32.12196 -121.19709,-118.61574 V 187.0657 c 0,-86.4938 53.3519,-118.615744 119.13202,-118.615744 71.47166,0 123.791,37.297224 123.791,99.463434 0,25.88896 -11.39566,32.09676 -33.67074,32.09676 -18.13236,0 -33.15447,-5.17528 -33.67076,-21.22992 -1.5488,-24.34018 -9.83427,-51.27422 -53.86817,-51.27422 z m 0,0"
     fill="#fef4f5"
     id="path6"
     style="fill:#422057;fill-opacity:1;stroke-width:3.22354" />
  <circle
     style="fill:#422057;fill-opacity:1;stroke:none;stroke-width:8.00995;stroke-linecap:round;stroke-linejoin:round;stroke-miterlimit:4;stroke-dasharray:none;stroke-opacity:1"
     id="path1865-1"
     cx="121.52934"
     cy="410.23798"
     r="36.410896" />
</svg>
