<?xml version="1.0" encoding="UTF-8" standalone="no"?>
<svg
   xmlns:dc="http://purl.org/dc/elements/1.1/"
   xmlns:cc="http://creativecommons.org/ns#"
   xmlns:rdf="http://www.w3.org/1999/02/22-rdf-syntax-ns#"
   xmlns:svg="http://www.w3.org/2000/svg"
   xmlns="http://www.w3.org/2000/svg"
   xmlns:sodipodi="http://sodipodi.sourceforge.net/DTD/sodipodi-0.dtd"
   xmlns:inkscape="http://www.inkscape.org/namespaces/inkscape"
   height="512pt"
   viewBox="0 0 512 512"
   width="512pt"
   version="1.1"
   id="svg16"
   sodipodi:docname="favicon.svg"
   inkscape:version="1.0.1 (3bc2e813f5, 2020-09-07)">
  <metadata
     id="metadata22">
    <rdf:RDF>
      <cc:Work
         rdf:about="">
        <dc:format>image/svg+xml</dc:format>
        <dc:type
           rdf:resource="http://purl.org/dc/dcmitype/StillImage" />
        <dc:title></dc:title>
      </cc:Work>
    </rdf:RDF>
  </metadata>
  <defs
     id="defs20" />
  <sodipodi:namedview
     pagecolor="#ffffff"
     bordercolor="#666666"
     borderopacity="1"
     objecttolerance="10"
     gridtolerance="10"
     guidetolerance="10"
     inkscape:pageopacity="0"
     inkscape:pageshadow="2"
     inkscape:window-width="1423"
     inkscape:window-height="1008"
     id="namedview18"
     showgrid="false"
     showguides="true"
     inkscape:guide-bbox="true"
     inkscape:zoom="0.53833008"
     inkscape:cx="-53.602754"
     inkscape:cy="222.52915"
     inkscape:window-x="1854"
     inkscape:window-y="0"
     inkscape:window-maximized="0"
     inkscape:current-layer="svg16" />
  <path
     d="m456.832031 0h-401.667969c-30.417968 0-55.164062 24.746094-55.164062 55.164062v401.667969c0 30.421875 24.746094 55.167969 55.164062 55.167969h401.667969c30.417969 0 55.164063-24.746094 55.164063-55.167969v-401.667969c0-30.417968-24.746094-55.164062-55.164063-55.164062zm0 0"
     fill="#00d8e0"
     id="path2"
     style="fill:#204a87" />
  <path
     d="m456.832031 0h-200.835937v512h200.835937c30.417969 0 55.164063-24.746094 55.164063-55.167969v-401.667969c0-30.417968-24.746094-55.164062-55.164063-55.164062zm0 0"
     fill="#00acb3"
     id="path4"
     style="fill:#b92d3a" />
  <path
     d="m 133.10542,160.19501 c -24.56203,0 -38.505775,13.56036 -38.505775,42.17001 v 102.31354 c 0,28.60072 13.943745,42.17003 38.140245,42.17003 23.83988,0 38.50577,-13.56039 38.50577,-42.17003 v -21.63777 h -29.70623 c -9.53061,0 -14.6659,-9.16507 -14.6659,-18.70458 0,-9.16506 5.13529,-18.69566 14.6659,-18.69566 h 62.34565 c 9.53951,0 15.04033,7.32847 15.04033,15.40587 v 43.63214 c 0,61.24013 -37.77471,83.98342 -86.18552,83.98342 -48.401915,0 -85.811085,-22.74329 -85.811085,-83.98342 V 202.36502 c 0,-61.24014 37.77471,-83.98342 84.348955,-83.98342 50.60403,0 87.64765,26.40753 87.64765,70.42302 0,18.33014 -8.06846,22.72545 -23.83987,22.72545 -12.83824,0 -23.47433,-3.66425 -23.83988,-15.03141 -1.0966,-17.23356 -6.96295,-36.30365 -38.14024,-36.30365 z m 0,0"
     fill="#fef4f5"
     id="path6"
     style="stroke-width:2.28236" />
  <g
     id="g10"
     transform="matrix(0.52549228,0,0,0.52549228,246.58863,123.59163)"
     style="fill:#ffffff">
    <path
       d="m 373.058,221.415 c -32.361,-34.084 -77.853,-53.633 -124.81,-53.633 -11.216,0 -21.218,0.453 -30.347,1.328 -0.096,0.009 -0.172,-0.075 -0.157,-0.17 L 230.802,90.123 C 230.814,90.052 230.875,90 230.947,90 H 347.86 C 373.932,90 395.292,68.286 393.729,42.26 392.315,18.683 372.746,0 348.813,0 H 192.666 C 170.652,0 151.87,15.927 148.271,37.645 l -30.933,186.704 c -2.794,16.864 4.042,33.941 17.906,43.94 13.839,9.98 31.964,11.36 47.065,3.436 0.301,-0.149 1.449,-0.715 3.286,-1.541 16.643,-7.491 29.994,-12.401 62.653,-12.401 22.721,0 43.867,9.092 59.542,25.602 15.662,16.496 23.636,38.137 22.452,60.937 -1.065,20.524 -9.943,39.851 -25,54.418 -15.063,14.575 -34.695,22.83 -55.278,23.244 -31.288,0.623 -59.249,-16.392 -73.621,-42.349 -9.098,-16.432 -27.196,-25.751 -45.799,-23.155 -31.047,4.333 -48.453,38.387 -33.42,65.896 29.459,53.906 86.704,89.63 151.137,89.625 1.166,0 2.346,-0.012 3.516,-0.035 89.75,-1.809 163.695,-73.397 168.344,-162.979 2.476,-47.694 -14.239,-93 -47.063,-127.572 z"
       fill="#ff7cec"
       id="path2-9"
       style="fill:#ffffff" />
    <g
       id="g6"
       style="fill:#ffffff">
      <path
         d="M 347.861,90 C 373.933,90 395.293,68.286 393.73,42.26 392.315,18.683 372.746,0 348.813,0 H 256 v 90 z"
         fill="#b473f1"
         id="path4-3"
         style="fill:#ffffff" />
    </g>
    <path
       d="M 373.058,221.415 C 342.481,189.21 300.182,169.992 256,167.97 v 90.183 c 19.748,1.828 37.914,10.615 51.79,25.23 15.662,16.496 23.636,38.137 22.452,60.937 -1.065,20.524 -9.943,39.851 -25,54.418 C 291.66,411.881 274.36,419.862 256,421.612 v 90.215 c 87.836,-3.928 159.545,-74.669 164.121,-162.842 2.476,-47.692 -14.239,-92.998 -47.063,-127.57 z"
       fill="#b473f1"
       id="path8-4"
       style="fill:#ffffff" />
  </g>
</svg>
