<?xml version="1.0" encoding="UTF-8" standalone="no"?>
<svg
   xmlns:dc="http://purl.org/dc/elements/1.1/"
   xmlns:cc="http://creativecommons.org/ns#"
   xmlns:rdf="http://www.w3.org/1999/02/22-rdf-syntax-ns#"
   xmlns:svg="http://www.w3.org/2000/svg"
   xmlns="http://www.w3.org/2000/svg"
   width="271mm"
   height="84mm"
   viewBox="0 0 271 84"
   version="1.1"
   id="svg69">
  <defs
     id="defs63" />
  <metadata
     id="metadata66">
    <rdf:RDF>
      <cc:Work
         rdf:about="">
        <dc:format>image/svg+xml</dc:format>
        <dc:type
           rdf:resource="http://purl.org/dc/dcmitype/StillImage" />
        <dc:title></dc:title>
      </cc:Work>
    </rdf:RDF>
  </metadata>
  <g
     id="layer1">
    <path
       d="M 219.33881,1.2981134 H 42.415424 c -13.398284,0 -24.298247,3.9666478 -24.298247,8.8424616 v 64.384897 c 0,4.876434 10.899963,8.843081 24.298247,8.843081 H 219.33881 c 13.39825,0 24.2982,-3.966647 24.2982,-8.843081 V 10.140575 c 0,-4.8758138 -10.89995,-8.8424616 -24.2982,-8.8424616 z m 0,0"
       fill="#00d8e0"
       id="path2-1"
       style="fill:#fcf951;fill-opacity:1;stroke:#422057;stroke-width:0.798819;stroke-miterlimit:4;stroke-dasharray:none;stroke-opacity:1" />
    <path
       d="M 234.39096,1.2981134 H 148.96215 V 83.368553 h 85.42881 c 12.93876,0 23.4649,-3.966647 23.4649,-8.843081 V 10.140575 c 0,-4.8758138 -10.52614,-8.8424616 -23.4649,-8.8424616 z m 0,0"
       fill="#00acb3"
       id="path4-0"
       style="fill:#422057;stroke-width:0.26112" />
    <g
       id="g1489"
       transform="matrix(0.09146393,0,0,0.10656454,160.31985,16.481994)"
       style="fill:#fcf951;stroke:none;stroke-width:13.6467;stroke-miterlimit:4;stroke-dasharray:none;stroke-opacity:1">
      <path
         clip-rule="evenodd"
         d="m 102.062,182.144 v 297.973 c 0,2.389 -0.629,4.653 -2.012,6.665 -1.383,1.887 -3.899,3.521 -7.546,4.779 -3.773,1.132 -8.552,2.138 -14.337,2.893 -5.785,0.755 -13.205,1.132 -22.261,1.132 -8.929,0 -16.35,-0.377 -22.26,-1.132 -5.911,-0.755 -10.69,-1.761 -14.212,-2.893 -3.521,-1.258 -6.037,-2.892 -7.42,-4.779 C 10.629,484.77 10,482.506 10,480.117 V 55.151 c 0,-12.577 3.27,-22.135 9.936,-28.801 6.666,-6.666 15.47,-9.935 26.663,-9.935 h 23.77 7.923 c 11.319,0 21.129,0.88 29.178,2.767 8.175,1.886 15.218,4.904 21.129,9.181 5.785,4.276 10.816,9.936 14.715,16.979 3.899,7.043 7.42,15.721 10.313,26.034 l 102.752,284.107 h 1.509 L 364.286,72.003 c 3.144,-10.313 6.666,-18.991 10.439,-26.159 3.899,-7.043 8.3,-12.828 13.331,-17.23 5.031,-4.402 11.068,-7.546 17.859,-9.432 6.917,-1.887 14.966,-2.767 24.022,-2.767 h 11.696 22.009 c 6.666,0 12.305,0.936 17.104,2.641 4.759,1.691 8.804,4.15 11.822,7.546 3.144,3.27 5.408,7.294 7.043,12.073 1.635,4.779 2.39,10.313 2.39,16.476 v 424.966 c 0,2.389 -0.629,4.653 -2.012,6.665 -1.384,1.887 -3.899,3.521 -7.421,4.779 -3.522,1.132 -8.3,2.138 -14.212,2.893 -5.912,0.755 -13.457,1.132 -22.512,1.132 -8.929,0 -16.35,-0.377 -22.26,-1.132 -5.911,-0.755 -10.565,-1.761 -14.086,-2.893 -3.396,-1.258 -5.911,-2.892 -7.294,-4.779 -1.509,-2.012 -2.264,-4.276 -2.264,-6.665 V 179.013 L 303.163,479.74 c -1.006,3.144 -2.515,5.785 -4.779,7.923 -2.264,2.138 -5.157,3.773 -9.055,5.031 -3.773,1.132 -8.678,2.013 -14.463,2.39 -5.911,0.377 -13.08,0.503 -21.38,0.503 -8.427,0 -15.47,-0.252 -21.381,-0.88 -5.911,-0.629 -10.816,-1.635 -14.589,-3.019 -3.773,-1.384 -6.792,-3.018 -9.056,-4.905 -2.138,-2.012 -3.647,-4.402 -4.402,-7.043 z"
         fill="#8481e2"
         fill-rule="evenodd"
         id="path1481"
         style="fill:#fcf951;stroke:none;stroke-width:13.6467;stroke-miterlimit:4;stroke-dasharray:none;stroke-opacity:1" />
      <g
         id="g1487"
         style="fill:#fcf951;stroke:none;stroke-width:13.6467;stroke-miterlimit:4;stroke-dasharray:none;stroke-opacity:1" />
    </g>
    <g
       id="g1511"
       transform="matrix(0.35534689,0,0,0.35534689,339.3038,-53.289203)"
       style="fill:#fcf951;stroke:none;stroke-width:3.78;stroke-miterlimit:4;stroke-dasharray:none;stroke-opacity:1">
      <path
         clip-rule="evenodd"
         d="m -266.75484,332.4201 c 0,2.13977 -0.0752,3.90427 -0.26274,5.3687 -0.18779,1.42653 -0.45052,2.59032 -0.82611,3.45404 -0.37529,0.90105 -0.82582,1.53908 -1.38919,1.95229 -0.52547,0.41291 -1.16379,0.6007 -1.80211,0.6007 h -71.40663 c -2.40281,0 -4.43003,-0.71326 -6.08197,-2.14007 -1.65193,-1.42653 -2.47775,-3.75441 -2.47775,-6.98303 V 210.55561 c 0,-3.22862 0.82582,-5.5565 2.47775,-6.98301 1.65194,-1.42653 3.67916,-2.13979 6.08197,-2.13979 h 71.06894 c 0.63804,0 1.23903,0.1875 1.7645,0.56308 0.48814,0.3756 0.93867,1.01362 1.31397,1.91467 0.33767,0.93867 0.63831,2.10245 0.82582,3.52898 0.1875,1.46415 0.26273,3.26626 0.26273,5.48128 0,2.06483 -0.0752,3.79171 -0.26273,5.25613 -0.1878,1.42653 -0.45053,2.59033 -0.82582,3.45376 -0.37559,0.90105 -0.82611,1.53937 -1.31397,1.95228 -0.52547,0.4129 -1.12646,0.60071 -1.7645,0.60071 h -50.79553 v 34.6897 h 42.79891 c 0.67564,0 1.27634,0.1875 1.80211,0.60069 0.56307,0.41321 1.0136,1.01362 1.38919,1.87705 0.37558,0.82612 0.63832,1.95229 0.82582,3.41642 0.18779,1.42653 0.26303,3.1537 0.26303,5.18092 0,2.13979 -0.0752,3.90457 -0.26303,5.29347 -0.18779,1.3892 -0.45053,2.51538 -0.82582,3.3412 -0.37529,0.86343 -0.82582,1.46414 -1.38919,1.80211 -0.52548,0.37529 -1.12618,0.56308 -1.80211,0.56308 h -42.79891 v 40.09603 h 51.1335 c 0.67565,0 1.27664,0.18779 1.80211,0.6007 0.56309,0.41291 1.01362,1.05122 1.3892,1.95228 0.37559,0.86344 0.63832,2.02722 0.82611,3.45404 0.18721,1.46413 0.26245,3.22863 0.26245,5.36871 z"
         fill="#ffc144"
         fill-rule="evenodd"
         id="path1503"
         style="fill:#fcf951;stroke:none;stroke-width:3.78;stroke-miterlimit:4;stroke-dasharray:none;stroke-opacity:1" />
      <g
         id="g1509"
         style="fill:#fcf951;stroke:none;stroke-width:3.78;stroke-miterlimit:4;stroke-dasharray:none;stroke-opacity:1" />
    </g>
    <g
       id="g1533"
       transform="matrix(0.10352737,0,0,0.10352737,-32.464559,8.7096513)"
       style="fill:#422057;fill-opacity:1;stroke:none;stroke-width:12.9745;stroke-miterlimit:4;stroke-dasharray:none;stroke-opacity:1">
      <path
         clip-rule="evenodd"
         d="m 1677.0168,133.66314 c 0,7.619 -0.259,13.946 -0.904,19.112 -0.646,5.165 -1.679,9.298 -3.099,12.397 -1.421,2.97 -2.97,5.295 -4.649,6.715 -1.808,1.549 -3.874,2.324 -6.069,2.324 h -160.384 v 131.716 h 150.441 c 2.324,0 4.39,0.646 6.069,1.937 1.808,1.162 3.357,3.357 4.778,6.327 1.421,3.099 2.324,7.102 2.97,12.138 0.646,5.036 1.033,11.364 1.033,18.983 0,7.49 -0.387,13.817 -1.033,18.853 -0.645,5.036 -1.549,9.169 -2.97,12.526 -1.421,3.228 -2.97,5.552 -4.778,6.973 -1.679,1.42 -3.745,2.066 -6.069,2.066 h -150.441 v 182.466 c 0,2.712 -0.775,5.165 -2.324,7.231 -1.42,1.937 -4.132,3.616 -8.135,5.036 -3.874,1.42 -9.039,2.454 -15.238,3.228 -6.328,0.775 -14.463,1.162 -24.277,1.162 -9.556,0 -17.562,-0.388 -24.019,-1.162 -6.457,-0.775 -11.622,-1.808 -15.367,-3.228 -3.745,-1.291 -6.457,-3.099 -8.135,-5.036 -1.679,-2.066 -2.453,-4.52 -2.453,-7.231 v -443.96 c 0,-11.106 2.841,-19.112 8.523,-24.019 5.68,-4.906996 12.653,-7.359996 21.047,-7.359996 h 230.762 c 2.195,0 4.261,0.646 6.069,2.066 1.679,1.42 3.228,3.616 4.649,6.843996 1.42,3.099 2.453,7.361 3.099,12.655 0.646,5.295 0.904,11.751 0.904,19.241 z"
         fill="#8481e2"
         fill-rule="evenodd"
         id="path1525"
         style="fill:#422057;fill-opacity:1;stroke:none;stroke-width:12.9745;stroke-miterlimit:4;stroke-dasharray:none;stroke-opacity:1" />
      <g
         id="g1531"
         style="fill:#422057;fill-opacity:1;stroke:none;stroke-width:12.9745;stroke-miterlimit:4;stroke-dasharray:none;stroke-opacity:1" />
    </g>
    <g
       id="g1555"
       transform="matrix(0.09954472,0,0,0.09954472,118.46833,17.689822)"
       style="fill:#422057;fill-opacity:1;stroke:none;stroke-width:13.4935;stroke-miterlimit:4;stroke-dasharray:none;stroke-opacity:1">
      <g
         id="g1572"
         style="fill:#422057;fill-opacity:1;stroke:none;stroke-width:13.4935;stroke-miterlimit:4;stroke-dasharray:none;stroke-opacity:1">
        <path
           clip-rule="evenodd"
           d="m -166.44256,500.98241 c 0,2.55747 -0.80746,4.98089 -2.55746,7.1341 -1.75002,2.01917 -4.57664,3.76814 -8.48092,5.11494 -3.90323,1.21171 -9.28732,2.28833 -15.74908,3.09578 -6.59579,0.80746 -15.07566,1.2117 -25.30553,1.2117 -9.96072,0 -18.30653,-0.4032 -25.03639,-1.2117 -6.72985,-0.80745 -12.11395,-1.88407 -16.01822,-3.09578 -3.90323,-1.34576 -6.72985,-3.09577 -8.47986,-5.11494 -1.75001,-2.15321 -2.55747,-4.57663 -2.55747,-7.1341 V 18.83137 c 0,-2.557469 0.80746,-4.980886 2.55747,-7.134103 1.75001,-2.0191655 4.57663,-3.7691782 8.74901,-5.1149391 4.03833,-1.3457608 9.28733,-2.2883171 15.88313,-3.0957737 6.59684,-0.8085037 14.94266,-1.2117085 24.90337,-1.2117085 10.22989,0 18.70975,0.4032048 25.30555,1.2117085 6.4607,0.8074566 11.84584,1.7500129 15.74906,3.0957737 3.90428,1.3457609 6.73091,3.0957736 8.48092,5.1149391 1.75001,2.153217 2.55747,4.576634 2.55747,7.134103 v 482.15104 z"
           fill="#88df8e"
           fill-rule="evenodd"
           id="path1547"
           style="fill:#422057;fill-opacity:1;stroke:none;stroke-width:13.4935;stroke-miterlimit:4;stroke-dasharray:none;stroke-opacity:1" />
      </g>
      <g
         id="g1553"
         style="fill:#422057;fill-opacity:1;stroke:none;stroke-width:13.4935;stroke-miterlimit:4;stroke-dasharray:none;stroke-opacity:1" />
    </g>
    <path
       d="m 65.245138,25.891627 c -4.682953,0 -7.341375,2.585366 -7.341375,8.039941 v 19.506589 c 0,5.452865 2.658422,8.039923 7.271631,8.039923 4.545267,0 7.34137,-2.585352 7.34137,-8.039923 V 49.31281 h -5.663661 c -1.817051,0 -2.796153,-1.747361 -2.796153,-3.566123 0,-1.747365 0.979102,-3.564417 2.796153,-3.564417 H 78.73965 c 1.818807,0 2.867553,1.397203 2.867553,2.937201 v 8.318686 c 0,11.675733 -7.201983,16.011854 -16.431809,16.011854 -9.228074,0 -16.360361,-4.336121 -16.360361,-16.011854 V 33.931568 c 0,-11.67578 7.201934,-16.011918 16.081627,-16.011918 9.647952,0 16.710543,5.034754 16.710543,13.426566 0,3.494732 -1.538318,4.332721 -4.545217,4.332721 -2.447679,0 -4.475523,-0.698606 -4.545222,-2.865811 -0.209086,-3.285675 -1.327525,-6.921499 -7.271626,-6.921499 z m 0,0"
       fill="#fef4f5"
       id="path6-5"
       style="fill:#422057;fill-opacity:1;stroke-width:0.435147" />
    <circle
       style="fill:#422057;fill-opacity:1;stroke:none;stroke-width:1.12539;stroke-linecap:round;stroke-linejoin:round;stroke-miterlimit:4;stroke-dasharray:none;stroke-opacity:1"
       id="path1865"
       cx="38.825459"
       cy="63.692986"
       r="5.115706" />
  </g>
</svg>
